<?xml version="1.0" encoding="utf-8"?>
<?xml-stylesheet type="text/xsl" href="rss1.xsl"?>
<rss version="2.0" xmlns:atom="http://www.w3.org/2005/Atom" xmlns:content="http://purl.org/rss/1.0/modules/content/" xmlns:dc="http://purl.org/dc/elements/1.1/" xmlns:media="http://search.yahoo.com/mrss/">
<channel>
 <title>Getty</title>
 <link>http://www.gettyimg.com/</link>
 <atom:link href="http://www.gettyimg.com/" rel="self" type="application/rss+xml" />

 
                <item>
                <title><![CDATA[【HD Live Performances】FEED - Rock &amp; Roll Hall of Fame Induction Ceremony (2023) 720p HDTV Backhaul FLAC 5.1 H.264-TrollHD]]></title>
                <link><![CDATA[https://sharemania.us/threads/rock-roll-hall-of-fame-induction-ceremony-2023-720p-hdtv-backhaul-flac-5-1-h-264-trollhd.234722/]]></link>
                <description><![CDATA[<article>
<blockquote class="messageText SelectQuoteContainer ugc baseHtml">
<div style="text-align: center"><b><span style="color: #ff0000">Rock &amp; Roll Hall of Fame Induction Ceremony (2023) 720p HDTV Backhaul FLAC 5.1 H.264-TrollHD<br>
<br>
<img src="https://images2.imgbox.com/86/87/RoitATTU_o.jpg" class="bbCodeImage LbImage" alt="[​IMG]" data-url="https://images2.imgbox.com/86/87/RoitATTU_o.jpg" style=""> </span><br>
<img src="https://images2.imgbox.com/95/8b/kEKHjDXn_o.jpg" class="bbCodeImage LbImage" alt="[​IMG]" data-url="https://images2.imgbox.com/95/8b/kEKHjDXn_o.jpg" style=""><br>
</b><br>
<div class="ToggleTriggerAnchor bbCodeSpoilerContainer">
<button type="button" class="button bbCodeSpoilerButton ToggleTrigger Tooltip JsOnly" data-target="> .SpoilerTarget"><span>Spoiler: <span class="SpoilerTitle">MediaInfo</span></span></button>
<div class="SpoilerTarget bbCodeSpoilerText">General<br>
Unique ID : 17709214875785828915876634240772788704 (0xD52ABB47151B63D1EB3C7B90820D1E0)<br>
Complete name : C:\Users\Admin\Downloads\Video\Rock &amp; Roll Hall of Fame Induction Ceremony (2023) 720p HDTV Backhaul FLAC 5.1 H.264-TrollHD.mkv<br>
Format : Matroska<br>
Format version : Version 4<br>
File size : 57.1 GiB<br>
Duration : 4 h 24 min<br>
Overall bit rate mode : Variable<br>
Overall bit rate : 30.9 Mb/s<br>
Frame rate : 59.940 FPS<br>
Encoded date : 2023-11-08 07:07:42 UTC<br>
Writing application : mkvmerge v77.0 ('Elemental') 64-bit<br>
Writing library : libebml v1.4.4 + libmatroska v1.7.1<br>
<br>
Video<br>
ID : 1<br>
Format : AVC<br>
Format/Info : Advanced Video Codec<br>
Format profile : High@L4.1<br>
Format settings : CABAC / 4 Ref Frames<br>
Format settings, CABAC : Yes<br>
Format settings, Reference frames : 4 frames<br>
Format settings, GOP : M=3, N=30<br>
Codec ID : V_MPEG4/ISO/AVC<br>
Duration : 4 h 24 min<br>
Bit rate mode : Variable<br>
Bit rate : 29.3 Mb/s<br>
Maximum bit rate : 30.7 Mb/s<br>
Width : 1 280 pixels<br>
Height : 720 pixels<br>
Display aspect ratio : 16:9<br>
Frame rate mode : Constant<br>
Frame rate : 59.940 (60000/1001) FPS<br>
Color space : YUV<br>
Chroma subsampling : 4:2:0<br>
Bit depth : 8 bits<br>
Scan type : Progressive<br>
Bits/(Pixel*Frame) : 0.531<br>
Stream size : 54.1 GiB (95%)<br>
Default : Yes<br>
Forced : No<br>
<br>
Audio<br>
ID : 2<br>
Format : FLAC<br>
Format/Info : Free Lossless Audio Codec<br>
Codec ID : A_FLAC<br>
Duration : 4 h 24 min<br>
Bit rate mode : Variable<br>
Bit rate : 1 571 kb/s<br>
Channel(s) : 6 channels<br>
Channel layout : L R C LFE Ls Rs<br>
Sampling rate : 48.0 kHz<br>
Frame rate : 11.719 FPS (4096 SPF)<br>
Bit depth : 16 bits<br>
Compression mode : Lossless<br>
Stream size : 2.90 GiB (5%)<br>
Writing library : libFLAC 1.3.2 (2019-08-04)<br>
Language : English<br>
Default : Yes<br>
Forced : No<br>
MD5 of the unencoded content : B0F97BA7E6FEC34FAFE48012746D1F91</div>
</div><br>
<div style="text-align: center">
<div class="bbCodeBlock bbCodeVfcHH HiddenContent">
<div class="attribution type">Hidden Content:</div>
<blockquote>You must either reply or click 'Like' to see the hidden information contained here.</blockquote>
</div></div></div>
<div class="messageTextEndMarker">&nbsp;</div>
</blockquote>
</article>]]></description>
                <author><![CDATA[melodie]]></author>
                </item>

                </channel></rss>